<svg width="14" height="20" viewBox="0 0 14 20" fill="none" xmlns="http://www.w3.org/2000/svg">
<path d="M13.6846 15.29L12.5102 14V9C12.5102 5.93 11.0171 3.36 8.41325 2.68V2C8.41325 1.17 7.80326 0.5 7.0476 0.5C6.29194 0.5 5.68195 1.17 5.68195 2V2.68C3.06901 3.36 1.585 5.92 1.585 9V14L0.410547 15.29C-0.163025 15.92 0.237565 17 1.04785 17H13.0382C13.8576 17 14.2582 15.92 13.6846 15.29ZM10.6893 15H3.40587V9C3.40587 6.52 4.78062 4.5 7.0476 4.5C9.31457 4.5 10.6893 6.52 10.6893 9V15ZM7.0476 20C8.04907 20 8.86846 19.1 8.86846 18H5.22673C5.22673 19.1 6.03702 20 7.0476 20Z" fill="#A3AED0"/>
</svg>
